<?xml version="1.0" encoding="utf-8"?>
<!-- Generator: Adobe Illustrator 19.1.0, SVG Export Plug-In . SVG Version: 6.00 Build 0)  -->
<svg version="1.1" id="Layer_1" xmlns="http://www.w3.org/2000/svg" xmlns:xlink="http://www.w3.org/1999/xlink" x="0px" y="0px"
	 viewBox="-940 979.2 118.6 43.8" style="enable-background:new -940 979.2 118.6 43.8;" xml:space="preserve">
<style type="text/css">
	.st0{fill:none;}
	.st1{enable-background:new;}
	.st2{fill:#FFFFFF;}
	.st3{fill:#5E35B1;}
	.st4{fill:#E185FF;}
</style>
<rect x="-937.5" y="989.3" class="st0" width="118.6" height="26.7"/>
<g class="st1">
	<path class="st2" d="M-927,1011.5c-1.2,0-2.4-0.2-3.5-0.6c-1.1-0.4-2.1-1-2.9-1.8l0.8-1c0.8,0.8,1.7,1.3,2.6,1.7
		c0.9,0.4,1.9,0.5,3,0.5c1.4,0,2.5-0.3,3.3-0.9c0.8-0.6,1.2-1.4,1.2-2.4c0-0.5-0.1-0.9-0.3-1.2c-0.2-0.3-0.5-0.6-0.9-0.8
		c-0.4-0.2-0.9-0.4-1.6-0.6c-0.6-0.2-1.3-0.4-2.2-0.6c-0.9-0.2-1.6-0.4-2.3-0.6c-0.6-0.2-1.2-0.4-1.6-0.7c-0.4-0.3-0.7-0.6-0.9-1
		s-0.3-0.9-0.3-1.5c0-0.8,0.1-1.5,0.4-2c0.3-0.6,0.7-1.1,1.2-1.4c0.5-0.4,1.1-0.7,1.8-0.9c0.7-0.2,1.4-0.3,2.2-0.3
		c1.2,0,2.3,0.2,3.2,0.6c0.9,0.4,1.7,0.9,2.2,1.6l-0.8,0.8c-0.5-0.6-1.2-1-2-1.3c-0.8-0.3-1.7-0.5-2.7-0.5c-0.6,0-1.1,0.1-1.6,0.2
		c-0.5,0.1-1,0.3-1.3,0.6c-0.4,0.3-0.7,0.6-0.9,1c-0.2,0.4-0.3,0.9-0.3,1.5c0,0.5,0.1,0.8,0.2,1.1c0.1,0.3,0.4,0.5,0.7,0.7
		s0.8,0.4,1.3,0.5c0.5,0.1,1.1,0.3,1.9,0.5c1,0.2,1.8,0.5,2.6,0.7c0.8,0.2,1.4,0.5,1.9,0.8c0.5,0.3,0.9,0.7,1.2,1.1
		c0.3,0.4,0.4,1,0.4,1.7c0,1.4-0.5,2.5-1.6,3.3C-923.7,1011.1-925.1,1011.5-927,1011.5z"/>
	<path class="st2" d="M-910.5,1010.4c-0.1,0-0.2,0.1-0.4,0.2c-0.2,0.1-0.4,0.2-0.7,0.3c-0.3,0.1-0.6,0.2-1,0.3
		c-0.4,0.1-0.8,0.1-1.2,0.1s-0.8-0.1-1.2-0.2c-0.4-0.1-0.7-0.3-1-0.5c-0.3-0.2-0.5-0.5-0.7-0.9c-0.2-0.3-0.3-0.7-0.3-1.2v-11.8h-2.2
		v-1.2h2.2v-5.3h1.5v5.3h3.7v1.2h-3.7v11.4c0,0.6,0.2,1,0.6,1.3s0.9,0.4,1.4,0.4c0.6,0,1.2-0.1,1.6-0.3c0.4-0.2,0.7-0.3,0.8-0.4
		L-910.5,1010.4z"/>
	<path class="st2" d="M-904.1,1011.5c-0.7,0-1.4-0.1-2-0.4c-0.6-0.2-1.2-0.6-1.6-1c-0.5-0.4-0.8-0.9-1.1-1.5
		c-0.3-0.6-0.4-1.2-0.4-1.9c0-0.7,0.2-1.3,0.5-1.9c0.3-0.6,0.8-1,1.4-1.5c0.6-0.4,1.3-0.7,2.1-1c0.8-0.2,1.7-0.3,2.6-0.3
		c0.8,0,1.7,0.1,2.6,0.2c0.9,0.1,1.6,0.4,2.3,0.6v-1.5c0-1.5-0.4-2.7-1.3-3.5c-0.8-0.9-2-1.3-3.4-1.3c-0.8,0-1.6,0.2-2.4,0.5
		c-0.9,0.3-1.7,0.8-2.6,1.4l-0.6-1c2-1.4,3.9-2,5.7-2c1.9,0,3.4,0.5,4.5,1.6c1.1,1.1,1.6,2.6,1.6,4.5v7.6c0,0.5,0.2,0.8,0.6,0.8v1.3
		c-0.1,0-0.2,0-0.3,0c-0.1,0-0.2,0-0.3,0c-0.4,0-0.7-0.1-1-0.4c-0.3-0.2-0.5-0.6-0.5-1v-1.3c-0.7,0.9-1.6,1.7-2.7,2.2
		C-901.6,1011.2-902.8,1011.5-904.1,1011.5z M-903.8,1010.3c1.2,0,2.2-0.2,3.2-0.6c1-0.4,1.7-1,2.2-1.8c0.3-0.4,0.5-0.8,0.5-1.2
		v-2.8c-1.5-0.6-3.1-0.8-4.7-0.8c-1.6,0-2.8,0.3-3.8,1c-1,0.6-1.4,1.5-1.4,2.5c0,0.5,0.1,1,0.3,1.5c0.2,0.5,0.5,0.9,0.8,1.2
		c0.4,0.3,0.8,0.6,1.3,0.8C-904.9,1010.2-904.4,1010.3-903.8,1010.3z"/>
</g>
<g class="st1">
	<path class="st3" d="M-884.2,1010.4c-0.1,0-0.2,0.1-0.4,0.2c-0.2,0.1-0.4,0.2-0.7,0.3c-0.3,0.1-0.6,0.2-1,0.3
		c-0.4,0.1-0.8,0.1-1.2,0.1s-0.8-0.1-1.2-0.2c-0.4-0.1-0.7-0.3-1-0.5c-0.3-0.2-0.5-0.5-0.7-0.9c-0.2-0.3-0.3-0.7-0.3-1.2v-11.8h-2.2
		v-1.2h2.2v-5.3h1.5v5.3h3.7v1.2h-3.7v11.4c0,0.6,0.2,1,0.6,1.3s0.9,0.4,1.4,0.4c0.6,0,1.2-0.1,1.6-0.3c0.4-0.2,0.7-0.3,0.8-0.4
		L-884.2,1010.4z"/>
	<path class="st3" d="M-881.6,992v-2.8h1.5v2.8H-881.6z M-881.6,1011.2v-15.6h1.5v15.6H-881.6z"/>
</g>
<circle class="st3" cx="-868.4" cy="1003.8" r="8.5"/>
<path class="st4" d="M-873.7,1005.1c-0.2,0-0.4-0.2-0.4-0.3v-2c0-0.2,0.2-0.3,0.4-0.3s0.4,0.2,0.4,0.3v2
	C-873.3,1004.9-873.5,1005.1-873.7,1005.1z">
	<animate attributeType="CSS" attributeName="opacity" 
           from="1" to="0" dur="1.2s" repeatCount="indefinite" begin="0.0s"  />
</path>
<path class="st4" d="M-871.9,1007.6c-0.2,0-0.4-0.2-0.4-0.3v-6.6c0-0.2,0.2-0.3,0.4-0.3s0.4,0.2,0.4,0.3v6.6
	C-871.5,1007.4-871.7,1007.6-871.9,1007.6z">
	<animate attributeType="CSS" attributeName="opacity" 
           from="1" to="0" dur="1.2s" repeatCount="indefinite" begin="0.1s" />
</path>
<path class="st4" d="M-870.2,1010.9c-0.2,0-0.4-0.2-0.4-0.3v-13.3c0-0.2,0.2-0.3,0.4-0.3s0.4,0.2,0.4,0.3v13.3
	C-869.8,1010.7-870,1010.9-870.2,1010.9z">
	<animate attributeType="CSS" attributeName="opacity" 
           from="1" to="0" dur="1.2s" repeatCount="indefinite" begin="0.2s"/>
</path>
<path class="st4" d="M-868.6,1009.8c-0.2,0-0.4-0.2-0.4-0.3v-11.1c0-0.2,0.2-0.3,0.4-0.3s0.4,0.2,0.4,0.3v11.1
	C-868.1,1009.6-868.3,1009.8-868.6,1009.8z">
	<animate attributeType="CSS" attributeName="opacity" 
           from="1" to="0" dur="1.2s" repeatCount="indefinite" begin="0.3s"/>
</path>
<path class="st4" d="M-866.9,1008c-0.2,0-0.4-0.2-0.4-0.3v-7.5c0-0.2,0.2-0.3,0.4-0.3s0.4,0.2,0.4,0.3v7.5
	C-866.5,1007.9-866.7,1008-866.9,1008z">
	<animate attributeType="CSS" attributeName="opacity" 
           from="1" to="0" dur="1.2s" repeatCount="indefinite" begin="0.4s"/>
</path>
<path class="st4" d="M-865.2,1006.4c-0.2,0-0.4-0.2-0.4-0.3v-4.2c0-0.2,0.2-0.3,0.4-0.3s0.4,0.2,0.4,0.3v4.2
	C-864.8,1006.2-865,1006.4-865.2,1006.4z">
	<animate attributeType="CSS" attributeName="opacity" 
           from="1" to="0" dur="1.2s" repeatCount="indefinite" begin="0.5s"/>
</path>
<path class="st4" d="M-863.6,1005.3c-0.2,0-0.4-0.2-0.4-0.3v-2c0-0.2,0.2-0.3,0.4-0.3s0.4,0.2,0.4,0.3v2
	C-863.2,1005.1-863.3,1005.3-863.6,1005.3z">
	<animate attributeType="CSS" attributeName="opacity" 
           from="1" to="0" dur="1.2s" repeatCount="indefinite" begin="0.6s"/>
</path>
<path class="st4" d="M-862.1,1004.9c-0.2,0-0.4-0.1-0.4-0.2v-1.4c0-0.1,0.2-0.2,0.4-0.2s0.4,0.1,0.4,0.2v1.4
	C-861.7,1004.7-861.9,1004.9-862.1,1004.9z">
	<animate attributeType="CSS" attributeName="opacity" 
           from="1" to="0" dur="1.2s" repeatCount="indefinite" begin="0.7s"/>
</path>
<rect x="-858.7" y="989.5" class="st0" width="36.2" height="30.5"/>
<g class="st1">
	<path class="st3" d="M-843.7,1011.4h-1.5v-8.7c0-2-0.3-3.5-0.9-4.4c-0.6-0.9-1.5-1.4-2.7-1.4c-0.7,0-1.3,0.1-2,0.4
		c-0.7,0.2-1.3,0.6-1.8,1c-0.6,0.4-1,1-1.5,1.5c-0.4,0.6-0.7,1.2-0.9,1.9v9.7h-1.5v-15.6h1.4v3.7c0.3-0.6,0.7-1.1,1.2-1.6
		c0.5-0.5,1-0.9,1.6-1.3c0.6-0.3,1.2-0.6,1.9-0.8c0.7-0.2,1.4-0.3,2.1-0.3c1.7,0,2.9,0.6,3.6,1.8c0.7,1.2,1.1,2.9,1.1,5.1V1011.4z"
		/>
	<path class="st3" d="M-834.3,1011.7c-1.2,0-2.4-0.2-3.5-0.6c-1.1-0.4-2.1-1-2.9-1.8l0.8-1c0.8,0.8,1.7,1.3,2.6,1.7
		c0.9,0.4,1.9,0.5,3,0.5c1.4,0,2.5-0.3,3.3-0.9c0.8-0.6,1.2-1.4,1.2-2.4c0-0.5-0.1-0.9-0.3-1.2c-0.2-0.3-0.5-0.6-0.9-0.8
		c-0.4-0.2-0.9-0.4-1.6-0.6c-0.6-0.2-1.3-0.4-2.2-0.6c-0.9-0.2-1.6-0.4-2.3-0.6c-0.6-0.2-1.2-0.4-1.6-0.7c-0.4-0.3-0.7-0.6-0.9-1
		c-0.2-0.4-0.3-0.9-0.3-1.5c0-0.8,0.1-1.5,0.5-2c0.3-0.6,0.7-1.1,1.2-1.4c0.5-0.4,1.1-0.7,1.8-0.9c0.7-0.2,1.4-0.3,2.2-0.3
		c1.2,0,2.3,0.2,3.2,0.6c0.9,0.4,1.7,0.9,2.2,1.6l-0.8,0.8c-0.5-0.6-1.2-1-2-1.3c-0.8-0.3-1.7-0.5-2.7-0.5c-0.6,0-1.1,0.1-1.6,0.2
		s-1,0.3-1.3,0.6s-0.7,0.6-0.9,1c-0.2,0.4-0.3,0.9-0.3,1.5c0,0.5,0.1,0.8,0.2,1.1s0.4,0.5,0.7,0.7s0.8,0.4,1.3,0.5
		c0.5,0.2,1.1,0.3,1.9,0.5c1,0.2,1.8,0.5,2.6,0.7c0.8,0.2,1.4,0.5,1.9,0.8c0.5,0.3,0.9,0.7,1.2,1.1c0.3,0.4,0.4,1,0.4,1.7
		c0,1.4-0.5,2.5-1.6,3.3C-831,1011.3-832.5,1011.7-834.3,1011.7z"/>
</g>
</svg>
